<svg width="65" height="25" viewBox="0 0 65 25" fill="none" xmlns="http://www.w3.org/2000/svg">
<rect x="1.03125" y="1.2168" width="63" height="23" rx="1.5" fill="white"/>
<path d="M12.7185 7.58994H12.5935C12.6622 7.58994 12.7185 7.53369 12.7185 7.46494V7.58994H17.4685V7.46494C17.4685 7.53369 17.5247 7.58994 17.5935 7.58994H17.4685V8.71494H18.5935V7.46494C18.5935 6.91337 18.145 6.46494 17.5935 6.46494H12.5935C12.0419 6.46494 11.5935 6.91337 11.5935 7.46494V8.71494H12.7185V7.58994ZM20.5935 8.71494H9.59348C9.31691 8.71494 9.09348 8.93837 9.09348 9.21494V9.71494C9.09348 9.78369 9.14973 9.83994 9.21848 9.83994H10.1622L10.5482 18.0118C10.5732 18.5446 11.0138 18.9649 11.5466 18.9649H18.6404C19.1747 18.9649 19.6138 18.5462 19.6388 18.0118L20.0247 9.83994H20.9685C21.0372 9.83994 21.0935 9.78369 21.0935 9.71494V9.21494C21.0935 8.93837 20.87 8.71494 20.5935 8.71494ZM18.52 17.8399H11.6669L11.2888 9.83994H18.8982L18.52 17.8399Z" fill="black" fill-opacity="0.85"/>
<path d="M34.3393 6.7968V8.0988C34.3393 9.9888 33.0933 11.6548 31.1893 12.3408L31.7913 13.2788C33.9193 12.4668 35.2913 10.4928 35.2913 8.0988V6.7968H34.3393ZM34.5493 6.7968V8.1828C34.5493 10.3808 35.9213 12.2708 37.9793 13.0268L38.5673 12.1028C36.7473 11.4728 35.4873 9.8908 35.4873 8.1828V6.7968H34.5493ZM39.8833 6.1528V13.8108H41.0453V6.1528H39.8833ZM40.7233 9.4848V10.4648H42.9213V9.4848H40.7233ZM32.8273 14.4408V15.4068H39.8833V18.8088H41.0453V14.4408H32.8273ZM53.7282 6.1528V18.8088H54.8482V6.1528H53.7282ZM49.1222 10.6888V11.6548H51.5442V10.6888H49.1222ZM51.1942 6.4468V18.1648H52.2862V6.4468H51.1942ZM46.6862 8.1128V9.7228C46.6862 12.0468 45.7062 14.3568 43.9422 15.4208L44.6562 16.2888C46.5182 15.1128 47.5822 12.4948 47.5822 9.7228V8.1128H46.6862ZM46.9242 8.1128V9.7228C46.9242 12.3688 47.9462 14.8608 49.7942 15.9808L50.5082 15.1268C48.7722 14.1188 47.8202 11.9208 47.8202 9.7228V8.1128H46.9242ZM44.2922 7.6228V8.5888H50.0742V7.6228H44.2922Z" fill="black" fill-opacity="0.85"/>
<rect x="1.03125" y="1.2168" width="63" height="23" rx="1.5" stroke="#D9D9D9"/>
</svg>
