<svg width="91" height="25" viewBox="0 0 91 25" fill="none" xmlns="http://www.w3.org/2000/svg">
<rect x="1.03125" y="1.2168" width="89" height="23" rx="1.5" fill="white"/>
<path d="M14.9952 15.0417C15.0069 15.0566 15.0218 15.0687 15.0388 15.077C15.0559 15.0853 15.0746 15.0896 15.0936 15.0896C15.1126 15.0896 15.1313 15.0853 15.1483 15.077C15.1654 15.0687 15.1803 15.0566 15.192 15.0417L16.942 12.8276C17.0061 12.7463 16.9483 12.626 16.8436 12.626H15.6858V7.33853C15.6858 7.26978 15.6295 7.21353 15.5608 7.21353H14.6233C14.5545 7.21353 14.4983 7.26978 14.4983 7.33853V12.6245H13.3436C13.2389 12.6245 13.1811 12.7448 13.2452 12.826L14.9952 15.0417ZM20.8123 14.4948H19.8748C19.8061 14.4948 19.7498 14.551 19.7498 14.6198V17.026H10.4373V14.6198C10.4373 14.551 10.3811 14.4948 10.3123 14.4948H9.37485C9.3061 14.4948 9.24985 14.551 9.24985 14.6198V17.7135C9.24985 17.9901 9.47328 18.2135 9.74985 18.2135H20.4373C20.7139 18.2135 20.9373 17.9901 20.9373 17.7135V14.6198C20.9373 14.551 20.8811 14.4948 20.8123 14.4948Z" fill="black" fill-opacity="0.85"/>
<path d="M40.8353 6.1528V18.8088H41.9553V6.1528H40.8353ZM38.7073 11.3048V12.2568H41.1433V11.3048H38.7073ZM37.9653 6.4328V18.1648H39.0573V6.4328H37.9653ZM31.8333 7.6788V14.9868H32.9953V7.6788H31.8333ZM31.8333 14.5248V15.5328H32.6453C34.0033 15.5328 35.4593 15.4628 37.1813 15.1268L37.0553 14.1188C35.4033 14.4408 33.9473 14.5248 32.6453 14.5248H31.8333ZM53.3502 6.1388V18.8228H54.5122V6.1388H53.3502ZM50.8582 9.0368V9.9888H53.6582V9.0368H50.8582ZM44.5722 14.9028V15.8828H45.5102C47.5122 15.8828 49.1362 15.8128 51.1242 15.5048L51.0122 14.5388C49.0802 14.8468 47.4702 14.9028 45.5102 14.9028H44.5722ZM44.5442 7.2868V8.2528H48.9262V10.8708H44.5722V15.1268H45.7202V11.8228H50.0742V7.2868H44.5442ZM50.7742 12.4948V13.4468H53.5742V12.4948H50.7742ZM65.6411 6.1528V13.5588H66.8031V6.1528H65.6411ZM66.4811 9.1908V10.1708H68.6791V9.1908H66.4811ZM57.5071 6.8528V12.7608H63.3591V6.8528H62.2251V8.7848H58.6551V6.8528H57.5071ZM58.6551 9.7088H62.2251V11.8228H58.6551V9.7088ZM58.8931 14.2448V18.3608H60.0551V15.1828H66.9011V14.2448H58.8931ZM58.8931 17.6888V18.6408H67.1531V17.6888H58.8931ZM79.08 6.1528V18.8088H80.242V6.1528H79.08ZM75.37 7.5108V7.7068C75.37 11.0668 73.676 13.7548 70.022 15.5188L70.638 16.4568C74.866 14.3848 76.518 11.1788 76.518 7.5108H75.37ZM70.596 7.5108V8.4628H75.874V7.5108H70.596Z" fill="black" fill-opacity="0.85"/>
<rect x="1.03125" y="1.2168" width="89" height="23" rx="1.5" stroke="#D9D9D9"/>
</svg>
