<svg width="33" height="35" viewBox="0 0 33 35" fill="none" xmlns="http://www.w3.org/2000/svg">
<g filter="url(#filter0_d_9_12111)">
<rect x="0.53125" y="0.957275" width="32" height="31.4015" rx="2" fill="white"/>
<path d="M12.1201 20.4062C12.1513 20.4062 12.1826 20.4031 12.2138 20.3984L14.842 19.9374C14.8732 19.9312 14.9029 19.9171 14.9248 19.8937L21.5482 13.2703C21.5627 13.2558 21.5742 13.2386 21.582 13.2197C21.5899 13.2008 21.5939 13.1806 21.5939 13.1601C21.5939 13.1396 21.5899 13.1194 21.582 13.1005C21.5742 13.0816 21.5627 13.0644 21.5482 13.0499L18.9514 10.4515C18.9217 10.4218 18.8826 10.4062 18.8404 10.4062C18.7982 10.4062 18.7592 10.4218 18.7295 10.4515L12.106 17.0749C12.0826 17.0984 12.0685 17.1265 12.0623 17.1578L11.6013 19.7859C11.5861 19.8696 11.5916 19.9557 11.6172 20.0369C11.6428 20.118 11.6877 20.1917 11.7482 20.2515C11.8513 20.3515 11.981 20.4062 12.1201 20.4062ZM13.1732 17.6812L18.8404 12.0156L19.9857 13.1609L14.3185 18.8265L12.9295 19.0718L13.1732 17.6812ZM21.8435 21.7187H10.3435C10.067 21.7187 9.84354 21.9421 9.84354 22.2187V22.7812C9.84354 22.8499 9.89979 22.9062 9.96854 22.9062H22.2185C22.2873 22.9062 22.3435 22.8499 22.3435 22.7812V22.2187C22.3435 21.9421 22.1201 21.7187 21.8435 21.7187Z" fill="black" fill-opacity="0.85"/>
<rect x="1.03125" y="1.45728" width="31" height="30.4015" rx="1.5" stroke="#D9D9D9"/>
</g>
<defs>
<filter id="filter0_d_9_12111" x="0.53125" y="0.957275" width="32" height="33.4016" filterUnits="userSpaceOnUse" color-interpolation-filters="sRGB">
<feFlood flood-opacity="0" result="BackgroundImageFix"/>
<feColorMatrix in="SourceAlpha" type="matrix" values="0 0 0 0 0 0 0 0 0 0 0 0 0 0 0 0 0 0 127 0" result="hardAlpha"/>
<feOffset dy="2"/>
<feColorMatrix type="matrix" values="0 0 0 0 0 0 0 0 0 0 0 0 0 0 0 0 0 0 0.015 0"/>
<feBlend mode="normal" in2="BackgroundImageFix" result="effect1_dropShadow_9_12111"/>
<feBlend mode="normal" in="SourceGraphic" in2="effect1_dropShadow_9_12111" result="shape"/>
</filter>
</defs>
</svg>
