<svg width="78" height="25" viewBox="0 0 78 25" fill="none" xmlns="http://www.w3.org/2000/svg">
<rect x="1.03125" y="1.2168" width="76" height="23" rx="1.5" fill="white"/>
<path d="M13.3436 9.68527H14.4983V14.9712C14.4983 15.04 14.5546 15.0962 14.6233 15.0962H15.5608C15.6296 15.0962 15.6858 15.04 15.6858 14.9712V9.68527H16.8436C16.9483 9.68527 17.0061 9.56496 16.942 9.48371L15.192 7.26808C15.1804 7.25314 15.1654 7.24106 15.1484 7.23275C15.1313 7.22444 15.1126 7.22012 15.0936 7.22012C15.0746 7.22012 15.0559 7.22444 15.0389 7.23275C15.0218 7.24106 15.0069 7.25314 14.9952 7.26808L13.2452 9.48215C13.1811 9.56496 13.2389 9.68527 13.3436 9.68527ZM20.8124 14.5025H19.8749C19.8061 14.5025 19.7499 14.5587 19.7499 14.6275V17.0337H10.4374V14.6275C10.4374 14.5587 10.3811 14.5025 10.3124 14.5025H9.37486C9.30611 14.5025 9.24986 14.5587 9.24986 14.6275V17.7212C9.24986 17.9978 9.4733 18.2212 9.74986 18.2212H20.4374C20.7139 18.2212 20.9374 17.9978 20.9374 17.7212V14.6275C20.9374 14.5587 20.8811 14.5025 20.8124 14.5025Z" fill="black" fill-opacity="0.85"/>
<path d="M36.3553 10.3388V12.0468H37.5033V10.3388H36.3553ZM36.9433 6.3068C34.1433 6.3068 32.4913 7.0768 32.4913 8.4908C32.4913 9.9048 34.1433 10.6888 36.9433 10.6888C39.7293 10.6888 41.3953 9.9048 41.3953 8.4908C41.3953 7.0768 39.7293 6.3068 36.9433 6.3068ZM36.9433 7.1888C39.0013 7.1888 40.1913 7.6648 40.1913 8.4908C40.1913 9.3308 39.0013 9.8068 36.9433 9.8068C34.8713 9.8068 33.6813 9.3308 33.6813 8.4908C33.6813 7.6648 34.8713 7.1888 36.9433 7.1888ZM31.2173 11.6268V12.5788H42.6553V11.6268H31.2173ZM32.6033 13.6148V14.5248H40.0513V15.6308H32.6313V18.0248H33.7793V16.4848H41.1993V13.6148H32.6033ZM32.6313 17.7588V18.6688H41.5773V17.7588H32.6313ZM53.3222 6.1388V18.8228H54.4842V6.1388H53.3222ZM44.8382 14.8048V15.7708H45.8882C48.0582 15.7708 49.9622 15.6868 52.2582 15.3088L52.1322 14.3568C49.8922 14.7208 48.0022 14.8048 45.8882 14.8048H44.8382ZM44.8102 7.3288V8.2808H49.4862V10.8988H44.8382V15.1688H46.0002V11.8508H50.6622V7.3288H44.8102ZM66.2011 6.1528V18.8088H67.3631V6.1528H66.2011ZM62.4911 7.5108V7.7068C62.4911 11.0668 60.7971 13.7548 57.1431 15.5188L57.7591 16.4568C61.9871 14.3848 63.6391 11.1788 63.6391 7.5108H62.4911ZM57.7171 7.5108V8.4628H62.9951V7.5108H57.7171Z" fill="black" fill-opacity="0.85"/>
<rect x="1.03125" y="1.2168" width="76" height="23" rx="1.5" stroke="#D9D9D9"/>
</svg>
