<svg width="65" height="61" viewBox="0 0 65 61" fill="none" xmlns="http://www.w3.org/2000/svg">
<path d="M0.98665 34.7634C1.42029 35.0135 1.96235 35.0362 2.41833 34.824L8.3054 32.0843C8.80475 31.8519 9.11946 31.3773 9.11946 30.8581V26.7486C9.11552 25.9016 8.83103 25.0766 8.30407 24.3862C7.77712 23.6957 7.03401 23.1735 6.17598 22.8909V20.4662L14.0118 27.7595C9.977 30.2931 7.58467 34.5475 7.64774 39.0773C7.63198 42.8743 9.5163 46.4622 12.7444 48.7842C10.2259 52.3795 9.89812 56.9348 11.8785 60.8107C13.8587 64.6873 17.8621 67.3254 22.4476 67.7768C22.8477 70.8645 24.6381 73.6488 27.3734 75.4357C30.1087 77.222 33.5304 77.8434 36.7861 77.1431C40.0423 76.4435 42.8256 74.4891 44.442 71.767C46.0583 74.4891 48.8415 76.4435 52.0979 77.1431C55.3534 77.8433 58.7753 77.222 61.5106 75.4357C64.2459 73.6488 66.0362 70.8645 66.4364 67.7768C71.0219 67.3255 75.0251 64.6873 77.0055 60.8107C78.9858 56.9348 78.658 52.3795 76.1396 48.7842C79.3675 46.4622 81.252 42.8743 81.2362 39.0773C81.2908 34.6289 78.982 30.443 75.0666 27.891L88.043 18.2292C88.4556 17.9222 88.6593 17.4324 88.5772 16.9462C88.4944 16.4607 88.1383 16.0528 87.6442 15.8791L44.963 0.810737C44.6154 0.687817 44.231 0.692709 43.8874 0.822968L4.14975 15.8913C3.69443 16.0656 3.36327 16.4393 3.26669 16.8881C3.24961 16.9786 3.24172 17.0704 3.24435 17.1621H3.23253V22.894C2.37508 23.1759 1.63199 23.6976 1.10511 24.3874C0.578824 25.0778 0.293671 25.9022 0.289062 26.7486V33.5978C0.289062 34.0724 0.552534 34.5139 0.986831 34.7634L0.98665 34.7634ZM42.9698 39.2143C41.3088 39.5322 39.816 40.3731 38.7437 41.5962C37.6715 42.8187 37.0847 44.3481 37.0828 45.9265C37.0828 47.0163 36.6176 48.0621 35.7897 48.8325C34.9618 49.6029 33.8382 50.036 32.6675 50.036V52.7757C34.6184 52.7732 36.4889 52.051 37.8687 50.7674C39.2478 49.4832 40.0237 47.7422 40.0264 45.9264C40.0303 45.0794 40.3148 44.2544 40.8418 43.564C41.3687 42.8736 42.1118 42.3513 42.9699 42.0688V66.4741C42.9699 68.6542 42.0395 70.7444 40.3838 72.2861C38.7274 73.8272 36.4816 74.6932 34.1393 74.6932C31.7969 74.6932 29.5512 73.8272 27.8948 72.2861C26.239 70.7444 25.3087 68.6542 25.3087 66.4741C25.3087 64.2939 26.239 62.2037 27.8948 60.662C29.5512 59.1209 31.7969 58.255 34.1393 58.255V55.5153C31.2916 55.5195 28.5413 56.4839 26.3986 58.2293C24.2554 59.9752 22.8644 62.3841 22.4827 65.0112C19.0156 64.5587 16.0325 62.4977 14.5628 59.5404C13.093 56.5823 13.3374 53.1327 15.2126 50.3801C17.0872 47.6282 20.3355 45.9507 23.8368 45.9263V43.1866C22.367 43.186 20.907 43.4129 19.5174 43.8581C18.2289 43.197 17.2532 42.1103 16.7848 40.812C16.3156 39.5143 16.3866 38.0999 16.9838 36.8487C17.5811 35.5975 18.6613 34.6001 20.0101 34.0539L18.8327 31.5429C16.0639 32.6651 14.1047 35.0275 13.6388 37.8044C13.173 40.5814 14.2656 43.3872 16.5351 45.2414C15.8511 45.6597 15.2111 46.1361 14.6218 46.6644C12.0739 44.8641 10.5811 42.0547 10.5908 39.077C10.5409 37.0993 11.0941 35.1491 12.1861 33.452C13.2781 31.755 14.8642 30.3809 16.7604 29.4881H42.9696L42.9698 39.2143ZM17.9498 26.7486V21.2692H70.9334V26.7486H17.9498ZM78.2922 39.0773C78.3001 42.0554 76.806 44.8643 74.2567 46.6634C73.668 46.1344 73.0274 45.658 72.3434 45.2404C74.6128 43.3861 75.7054 40.5804 75.2397 37.8034C74.7738 35.0265 72.8145 32.664 70.0458 31.5419L68.8684 34.0528C70.2179 34.5989 71.2974 35.5958 71.8946 36.8477C72.4919 38.0989 72.5635 39.5133 72.0944 40.811C71.6253 42.1087 70.6502 43.1959 69.3618 43.8564C67.9728 43.4131 66.5148 43.1862 65.0464 43.1868V45.9265C68.5477 45.951 71.7962 47.6284 73.6706 50.3803C75.5457 53.1328 75.7903 56.5825 74.3204 59.5406C72.8506 62.4981 69.8676 64.559 66.4005 65.0114C66.0187 62.3843 64.6278 59.9754 62.4846 58.2295C60.342 56.4842 57.5916 55.5197 54.7439 55.5155V58.2551C57.0863 58.2551 59.332 59.1211 60.9884 60.6622C62.6441 62.2039 63.5745 64.2941 63.5745 66.4743C63.5745 68.6544 62.6441 70.7446 60.9884 72.2863C59.332 73.8274 57.0863 74.6934 54.7439 74.6934C52.4015 74.6934 50.1559 73.8274 48.4994 72.2863C46.8437 70.7446 45.9133 68.6544 45.9133 66.4743V42.069C46.7714 42.3515 47.5145 42.8738 48.0414 43.5642C48.5684 44.2547 48.8528 45.0796 48.8568 45.9266C48.8594 47.7423 49.6354 49.4834 51.0145 50.7676C52.3943 52.0512 54.2648 52.7734 56.2156 52.7759V50.0362C55.0448 50.0362 53.9212 49.6032 53.0935 48.8327C52.2657 48.0621 51.8004 47.0163 51.8004 45.9267C51.7984 44.3483 51.2117 42.8188 50.1394 41.5964C49.0671 40.3733 47.5743 39.5324 45.9133 39.2144V29.4885H72.1226C74.0187 30.3813 75.6048 31.7554 76.6968 33.4525C77.7888 35.1495 78.342 37.0997 78.2921 39.0775L78.2922 39.0773ZM44.4601 3.56449L84.1894 17.5889L73.8766 25.2698V19.8998C73.8766 19.5366 73.7215 19.188 73.4455 18.9312C73.1696 18.6743 72.7951 18.53 72.4048 18.53H16.4777C15.6649 18.53 15.0059 19.1434 15.0059 19.8998V24.8124L7.31137 17.6506L44.4601 3.56449ZM3.23214 26.7486C3.23214 25.9921 3.89116 25.3788 4.70391 25.3788C5.51666 25.3788 6.17568 25.9921 6.17568 26.7486V30.0118L3.23214 31.3817V26.7486Z" fill="white" fill-opacity="0.38"/>
</svg>
