<svg width="66" height="61" viewBox="0 0 66 61" fill="none" xmlns="http://www.w3.org/2000/svg">
<mask id="mask0_445_41" style="mask-type:alpha" maskUnits="userSpaceOnUse" x="0" y="0" width="66" height="61">
<rect x="0.914062" y="0.374146" width="64.6154" height="60" fill="#C4C4C4"/>
</mask>
<g mask="url(#mask0_445_41)">
<path d="M73.0812 35.8831C73.0812 35.2832 72.5478 34.7961 71.8908 34.7961L46.1246 34.7954V16.9123H71.3927V14.7376H46.1246V10.629H71.3927V8.45422L24.5551 8.45495C23.8981 8.45495 23.3647 8.94204 23.3647 9.54197V34.7957H8.12012C7.4631 34.7957 6.92969 35.2828 6.92969 35.8827C6.92969 48.4144 16.4427 59.0676 29.5932 62.8233H14.4046V64.9981H65.6042V62.8233H50.4195C63.5677 59.0685 73.081 48.4161 73.081 35.8846L73.0812 35.8831ZM39.3318 10.6294H43.7427V34.7965H39.3318V10.6294ZM32.5401 10.6294H36.9502V34.7965H32.5401V10.6294ZM25.7476 10.6294H30.1584V34.7965H25.7476V10.6294ZM9.33811 36.9698H70.6724C70.0026 50.9219 56.5027 62.0968 40.0073 62.0968C23.5078 62.0968 10.0076 50.9215 9.33811 36.9698Z" fill="white" fill-opacity="0.38"/>
</g>
</svg>
