<svg width="66" height="61" viewBox="0 0 66 61" fill="none" xmlns="http://www.w3.org/2000/svg">
<mask id="mask0_445_1006" style="mask-type:alpha" maskUnits="userSpaceOnUse" x="0" y="0" width="66" height="61">
<rect x="0.914062" y="0.721802" width="64.6154" height="60" fill="#C4C4C4"/>
</mask>
<g mask="url(#mask0_445_1006)">
<path d="M34.6532 8.02414V3.22629C34.6532 2.42679 34.0693 1.89368 33.1938 1.89368C32.3183 1.89368 31.7344 2.42683 31.7344 3.22629V8.02414C31.7344 8.82363 32.3183 9.35675 33.1938 9.35675C34.0693 9.35721 34.6532 8.69066 34.6532 8.02414Z" fill="white" fill-opacity="0.38"/>
<path d="M47.8055 8.15682L44.1567 11.4886C43.5728 12.0218 43.5728 12.8212 44.1567 13.3544C44.7405 13.8877 45.6161 13.8876 46.2 13.3544L49.8489 10.0226C50.4327 9.48949 50.4327 8.69003 49.8489 8.15682C49.265 7.62367 48.3895 7.62367 47.8055 8.15682Z" fill="white" fill-opacity="0.38"/>
<path d="M48.6641 23.3513C48.6641 24.1509 49.2479 24.684 50.1235 24.684H55.3778C56.2533 24.684 56.8371 24.1508 56.8371 23.3513C56.8371 22.5519 56.2533 22.0187 55.3778 22.0187H50.1235C49.2479 22.0187 48.6641 22.6853 48.6641 23.3513Z" fill="white" fill-opacity="0.38"/>
<path d="M9.70312 23.3513C9.70312 24.1509 10.287 24.684 11.1625 24.684H16.4169C17.2924 24.684 17.8763 24.1508 17.8763 23.3513C17.8763 22.5519 17.2924 22.0187 16.4169 22.0187H11.1625C10.287 22.0187 9.70312 22.6853 9.70312 23.3513Z" fill="white" fill-opacity="0.38"/>
<path d="M20.2039 13.4879C20.7878 14.021 21.6633 14.021 22.2473 13.4879C22.8312 12.9547 22.8312 12.1553 22.2473 11.6221L18.5984 8.15682C18.0146 7.62367 17.139 7.62367 16.5551 8.15682C15.9712 8.68998 15.9712 9.48944 16.5551 10.0227L20.2039 13.4879Z" fill="white" fill-opacity="0.38"/>
<path d="M56.8417 48.2738C57.2795 47.6072 57.4256 46.8078 56.9878 46.1412L56.2578 43.7422C54.2145 37.0786 48.0846 32.1473 40.6408 31.4811C43.1219 29.4819 44.7274 26.6832 44.7274 23.4848C44.7274 17.6206 39.6192 12.9562 33.1971 12.9562C26.775 12.9562 21.6668 17.6206 21.6668 23.4848C21.6668 26.6832 23.2723 29.6154 25.7534 31.4811C18.3096 32.2806 12.0338 37.0784 10.1364 43.8755L9.40639 46.141C9.1147 46.8076 9.1147 47.6071 9.55249 48.2737C10.1364 49.2066 11.3041 49.7397 12.6175 49.7397H13.2014L10.4281 54.4041C8.96874 56.803 8.96874 59.8686 10.5742 62.267C12.0336 64.5326 14.5147 65.8652 17.2881 65.8652H49.1059C51.8791 65.8652 54.3602 64.5326 55.8197 62.267C57.4252 59.8681 57.4252 56.8026 55.9658 54.4041L53.1926 49.7397H53.7765C55.0903 49.7397 56.2581 49.2065 56.8419 48.2737L56.8417 48.2738ZM24.5861 23.3516C24.5861 18.9535 28.381 15.4887 33.197 15.4887C38.0136 15.4887 41.808 18.954 41.808 23.3516C41.808 27.7498 38.0136 31.215 33.197 31.215C28.3804 31.215 24.5861 27.7498 24.5861 23.3516ZM53.4848 55.6038C54.5064 57.2032 54.5064 59.202 53.3387 60.8015C52.4631 62.2675 50.8576 63.067 49.106 63.067L34.6567 63.0675V59.6023C34.6567 57.7364 36.2622 56.2704 38.3055 56.2704H45.6032C46.4787 56.2704 47.0626 55.7373 47.0626 54.9378C47.0626 54.1383 46.4787 53.6052 45.6032 53.6052H38.3055C36.2622 53.6052 34.365 54.5381 33.1973 55.8707C32.0295 54.5381 30.1323 53.6052 28.0891 53.6052H20.7914C19.9158 53.6052 19.332 54.1383 19.332 54.9378C19.332 55.7373 19.9159 56.2704 20.7914 56.2704H28.0891C30.1324 56.2704 31.7379 57.7364 31.7379 59.6023V63.2004H17.2885C15.5369 63.2004 13.9313 62.4009 13.0559 60.9349C12.0342 59.3355 12.0342 57.3367 12.9098 55.7372L16.5586 49.7401H27.5051C29.8406 49.7401 31.8839 48.8072 33.1973 47.3412C34.5106 48.8072 36.5545 49.7401 38.8894 49.7401H49.8359L53.4848 55.6038ZM38.8895 47.0743C36.554 47.0743 34.6568 45.6083 34.6568 43.7425V41.2102C34.6568 40.4107 34.0729 39.8775 33.1974 39.8775C32.3219 39.8775 31.738 40.4107 31.738 41.2102V43.7425C31.738 45.6083 29.8408 47.0743 27.5054 47.0743H12.6182C12.4721 47.0743 12.3265 47.0743 12.1804 46.9409L12.9103 44.542C14.6619 38.8112 20.0619 34.5465 26.6299 34.1468C27.6516 34.0134 28.6733 34.0134 29.695 34.0134H36.8465C37.8682 34.0134 38.8899 34.0134 39.9116 34.1468C46.3336 34.5465 51.8797 38.8112 53.6312 44.542L54.3611 47.0743C54.215 47.0743 54.0694 47.2077 53.9234 47.2077H38.8902L38.8895 47.0743Z" fill="white" fill-opacity="0.38"/>
</g>
</svg>
