<svg width="66" height="61" viewBox="0 0 66 61" fill="none" xmlns="http://www.w3.org/2000/svg">
<mask id="mask0_445_957" style="mask-type:alpha" maskUnits="userSpaceOnUse" x="0" y="0" width="66" height="61">
<rect x="0.914062" y="0.721802" width="64.6154" height="60" fill="#C4C4C4"/>
</mask>
<g mask="url(#mask0_445_957)">
<path d="M54.5234 5.59923C54.1946 5.63196 53.8873 5.76476 53.6513 5.97659L20.4307 36.3111C20.1854 36.5286 20.0312 36.8176 19.9949 37.1281L18.9625 45.6547C18.9102 46.0615 19.0649 46.4683 19.3824 46.7583C19.6999 47.0482 20.1454 47.1894 20.591 47.1417L29.9288 46.1779V46.1784C30.2576 46.1457 30.5648 46.0129 30.8004 45.801L64.021 15.4665H64.0215C64.3001 15.2144 64.4573 14.8712 64.4573 14.513C64.4573 14.1553 64.3001 13.8121 64.0215 13.56L55.7166 5.97614H55.7161C55.4012 5.69323 54.9628 5.55435 54.5234 5.59924L54.5234 5.59923ZM54.6842 8.8253L60.9248 14.5237L58.86 16.4092L52.6194 10.7107L54.6842 8.8253ZM2.78849 12.303C1.92713 12.3273 1.33827 13.04 1.32031 13.6436V61.9108C1.32031 62.6127 2.01985 63.2514 2.78849 63.2514H55.6478C56.4165 63.2514 57.116 62.6126 57.116 61.9108V33.0846C57.1272 32.3761 56.4236 31.7229 55.6478 31.7229C54.8719 31.7229 54.1683 32.3761 54.1796 33.0846V60.57H4.25694V14.9844H34.3574C35.1332 14.9942 35.8486 14.3522 35.8486 13.6438C35.8486 12.9353 35.1332 12.2928 34.3574 12.3031L2.78849 12.303ZM50.5323 12.6172L56.7729 18.3157L29.1266 43.5602L22.083 44.2723L22.863 37.8828L50.5323 12.6172Z" fill="white" fill-opacity="0.38"/>
</g>
</svg>
