<svg width="66" height="61" viewBox="0 0 66 61" fill="none" xmlns="http://www.w3.org/2000/svg">
<mask id="mask0_445_78" style="mask-type:alpha" maskUnits="userSpaceOnUse" x="0" y="0" width="66" height="61">
<rect x="0.914062" y="0.374146" width="64.6154" height="60" fill="#C4C4C4"/>
</mask>
<g mask="url(#mask0_445_78)">
<path d="M62.6826 37.1325C61.0315 36.7392 59.6673 36.3459 58.5186 35.8215C58.447 35.7561 58.3749 35.7561 58.2316 35.6902C57.8726 35.4936 57.5135 35.2969 57.1549 35.1003C52.9187 32.5436 47.9648 27.8888 48.3961 19.8911C48.4677 19.1699 47.8217 18.58 47.104 18.5141C46.9603 18.5141 33.3196 17.4651 32.2427 10.5815C31.5246 6.18916 27.7196 4.48492 25.7815 4.22245C25.2071 4.15706 24.7048 4.3537 24.3458 4.74697L13.6479 18.7762C13.5763 18.8416 13.5041 18.9074 13.4325 19.0382C13.3609 19.1036 13.3609 19.1695 13.3609 19.2348L4.889 30.2487C4.81738 30.3141 4.81738 30.3799 4.74527 30.5107C4.74527 30.5761 4.67365 30.6419 4.67365 30.6419V30.7073V30.8386V30.9698C4.60204 31.0357 4.60204 31.0357 4.60204 31.1011V31.2323C4.60204 31.2977 4.60204 31.3636 4.67365 31.3636V31.4289C4.67365 31.4943 4.74527 31.5602 4.74527 31.5602C4.74527 31.5602 4.74527 31.6256 4.81688 31.6256C4.81688 31.691 4.88849 31.7568 4.96061 31.7568C4.96061 31.7568 4.96061 31.8222 5.03222 31.8222C5.10383 31.8876 5.10383 31.8876 5.17595 31.9535L5.24756 32.0188L42.5803 56.0783C42.7241 56.1437 42.7957 56.2095 42.9394 56.2095C43.1548 56.4062 43.5138 56.4716 43.8008 56.4716H67.7812C68.571 56.4716 69.2169 55.8817 69.2169 55.1605V44.6712C69.2169 41.1313 66.4877 37.9848 62.6826 37.1325ZM26.1396 7.04178C27.2163 7.43505 29.0111 8.48404 29.3702 10.9754C30.5906 18.4485 41.575 20.5465 45.5238 21.0057C45.5238 22.5792 45.7391 24.0869 46.0982 25.398L41.5751 26.4466C40.7853 26.6432 40.3546 27.3643 40.4983 28.02C40.6421 28.61 41.2165 29.0032 41.8626 29.0032C42.0063 29.0032 42.0779 29.0032 42.2216 28.9378L46.888 27.8888C47.534 29.4623 48.3959 30.7734 49.401 31.9532L45.237 35.1656C44.6626 35.6248 44.5909 36.4767 45.0932 37.0012C45.3802 37.3291 45.8114 37.4604 46.1699 37.4604C46.529 37.4604 46.816 37.3291 47.1034 37.1325L51.1959 33.9201C52.7039 35.3623 54.2113 36.4114 55.5038 37.1979H55.5754L52.9192 40.607C52.4885 41.1969 52.6322 41.9839 53.2783 42.4426C53.5652 42.6392 53.8527 42.7046 54.1396 42.7046C54.5703 42.7046 55.001 42.508 55.2884 42.1801L58.1599 38.509C59.3088 38.9682 60.5291 39.2956 61.965 39.6235C64.5496 40.2134 66.3444 42.3114 66.3444 44.7369V47.359L46.0986 47.3594L18.6733 29.5279C19.3194 28.3481 19.6784 27.0366 19.6784 25.7256C19.6784 23.3001 18.5296 21.0708 16.5916 19.4319L26.1396 7.04178ZM14.9399 21.5955C16.0887 22.7099 16.8064 24.1522 16.8064 25.7257C16.8064 26.5122 16.591 27.2992 16.3036 28.0204L12.1395 25.3324L14.9399 21.5955ZM66.3442 53.9151H44.16L8.04766 30.6423L10.4885 27.4299L44.806 49.7193C44.8776 49.7193 44.8776 49.7847 44.9497 49.7847C44.9497 49.7847 45.0213 49.7847 45.0213 49.8501C45.0929 49.8501 45.0929 49.8501 45.165 49.9155C45.2366 49.9155 45.2367 49.9155 45.3088 49.9809H45.4525H45.5962L66.3446 49.9823L66.3442 53.9151ZM28.2935 55.2261C28.2935 55.9473 27.6475 56.5371 26.8578 56.5371L18.2421 56.5376C17.4524 56.5376 16.8064 55.9477 16.8064 55.2266C16.8064 54.5054 17.4524 53.9156 18.2421 53.9156H26.8573C27.6475 53.9151 28.2935 54.505 28.2935 55.2261ZM16.0887 48.6704C16.0887 49.3916 15.4427 49.9814 14.653 49.9814L6.03731 49.9819C5.24755 49.9819 4.60156 49.392 4.60156 48.6709C4.60156 47.9497 5.24759 47.3598 6.03731 47.3598H14.6524C15.4422 47.3594 16.0887 47.9493 16.0887 48.6704Z" fill="white" fill-opacity="0.38"/>
</g>
</svg>
