<svg width="66" height="61" viewBox="0 0 66 61" fill="none" xmlns="http://www.w3.org/2000/svg">
<mask id="mask0_445_95" style="mask-type:alpha" maskUnits="userSpaceOnUse" x="0" y="0" width="66" height="61">
<rect x="0.914062" y="0.374146" width="64.6154" height="60" fill="#C4C4C4"/>
</mask>
<g mask="url(#mask0_445_95)">
<path d="M73.1641 48.3184H71.718V42.3761C71.718 39.4644 69.1219 37.0938 65.9331 37.0938H35.5629C34.7675 37.0938 34.1169 37.6879 34.1169 38.4142V39.7347H29.778C29.778 36.4596 26.8566 33.7924 23.2704 33.7924C21.9328 33.7924 20.6889 34.1622 19.6549 34.796L19.6544 29.8306C19.6544 29.1042 19.0037 28.5101 18.2083 28.5101H10.9773C10.1819 28.5101 9.53125 29.1043 9.53125 29.8306V61.524C9.53125 62.2503 10.1819 62.8444 10.9773 62.8444C11.7728 62.8444 12.4234 62.2503 12.4234 61.524V57.5621H71.7175V61.524C71.7175 62.2503 72.3682 62.8444 73.1636 62.8444C73.959 62.8444 74.6096 62.2503 74.6096 61.524V49.639C74.6101 48.9126 73.9595 48.3185 73.1641 48.3185L73.1641 48.3184ZM37.0091 39.7347H65.9331C67.531 39.7347 68.8252 40.9165 68.8252 42.3756V48.3178L37.0089 48.3183L37.0091 39.7347ZM34.1165 42.3756V48.3178H29.7776V42.3751L34.1165 42.3756ZM19.6545 48.3183V44.3564H26.8855V48.3183H19.6545ZM23.27 36.4333C25.2659 36.4333 26.8855 37.9122 26.8855 39.7347V41.7156H19.6545V39.7347C19.6545 37.9122 21.2746 36.4333 23.27 36.4333ZM12.4235 31.1509H16.7624V48.3182H12.4235V31.1509ZM12.4235 50.9593H71.7176V54.9212H12.4235V50.9593ZM27.6086 19.9262C27.6086 19.1998 28.2593 18.6057 29.0546 18.6057H34.8396C35.3747 18.6057 35.8665 18.8765 36.1122 19.3058C36.3654 19.735 36.3361 20.2564 36.04 20.6594L31.7522 26.5294L34.8396 26.5289C35.635 26.5289 36.2856 27.1231 36.2856 27.8494C36.2856 28.5757 35.635 29.1698 34.8396 29.1698H29.0546C28.5195 29.1698 28.0277 28.899 27.782 28.4697C27.5288 28.0405 27.5581 27.5191 27.8542 27.1161L32.142 21.2461L29.0546 21.2466C28.2592 21.2466 27.6086 20.6525 27.6086 19.9262ZM39.9011 14.6438C39.9011 13.9175 40.5518 13.3234 41.3472 13.3234H47.1321C47.6673 13.3234 48.1591 13.5942 48.4047 14.0234C48.6579 14.4527 48.6287 14.9741 48.3326 15.377L44.0447 21.247L47.1321 21.2466C47.9275 21.2466 48.5782 21.8407 48.5782 22.567C48.5782 23.2933 47.9275 23.8874 47.1321 23.8874H41.3472C40.812 23.8874 40.3202 23.6166 40.0746 23.1874C39.8214 22.7581 39.8506 22.2367 40.1467 21.8338L44.4346 15.9638L41.3472 15.9642C40.5518 15.9642 39.9011 15.3701 39.9011 14.6438Z" fill="white" fill-opacity="0.38"/>
</g>
</svg>
